# xmcd
#
# Track frame offsets:
#	182
#	21145
#	39350
#	55685
#	71385
#	83157
#	103700
#	124240
#	145275
#	164130
#
# Disc length: 2411 seconds
#
# Revision: 2
# Processed by: cddbd v1.4PL0 Copyright (c) Steve Scherf et al.
# Submitted via: CDmax 1.8
#
DISCID=8509690a
DTITLE=Vince Gill - Let There Be Peace On Earth
DYEAR=1900
DGENRE=Country
TTITLE0=Do You Hear What I Hear
TTITLE1=Have Yourself A Merry Little Christmas
TTITLE2=One Bright Star
TTITLE3=What Child Is This
TTITLE4=Santa Claus Is Comming To Town
TTITLE5=I'll Be Home For Christmas
TTITLE6=Let There Be Peace On Earth
TTITLE7=White Christmas
TTITLE8=Til The Season Comes
TTITLE9=It Won't Be The Same This Year
EXTD=
EXTT0=
EXTT1=
EXTT2=
EXTT3=
EXTT4=
EXTT5=
EXTT6=
EXTT7=
EXTT8=
EXTT9=
PLAYORDER=
